<?xml version="1.0" standalone="no"?>
<!DOCTYPE svg PUBLIC "-//W3C//DTD SVG 20010904//EN"
 "http://www.w3.org/TR/2001/REC-SVG-20010904/DTD/svg10.dtd">
<svg version="1.0" xmlns="http://www.w3.org/2000/svg"
 width="256.000000pt" height="256.000000pt" viewBox="0 0 256.000000 256.000000"
 preserveAspectRatio="xMidYMid meet">
<metadata>
Created by potrace 1.11, written by Peter Selinger 2001-2013
</metadata>
<g transform="translate(0.000000,256.000000) scale(0.100000,-0.100000)"
fill="#000000" stroke="none">
<path d="M1057 2544 c-1 -1 -96 -4 -212 -8 -116 -4 -226 -8 -245 -10 -19 -2
-74 -7 -123 -11 -97 -8 -143 -27 -234 -97 -48 -37 -54 -46 -83 -133 l-31 -93
85 -122 c47 -68 83 -127 79 -133 -3 -6 -1 -7 5 -3 6 3 16 -2 21 -13 8 -14 8
-21 -2 -25 -6 -3 -3 -4 8 -3 13 1 20 -4 19 -15 -1 -10 2 -16 6 -15 5 1 22 -17
39 -41 27 -36 29 -45 19 -62 -7 -11 -16 -20 -21 -20 -4 0 -6 -4 -2 -9 8 -14
-17 -101 -28 -94 -6 3 -7 1 -3 -5 7 -12 3 -31 -119 -477 -65 -237 -82 -314
-110 -490 -7 -43 -9 -180 -3 -205 1 -8 14 -30 27 -49 19 -27 21 -35 10 -42 -8
-5 -21 -6 -29 -4 -8 2 -22 0 -30 -6 -12 -8 -11 -9 5 -5 22 6 39 -2 43 -22 2
-9 -4 -11 -18 -7 -11 3 -20 2 -20 -3 0 -4 13 -8 29 -8 19 0 27 4 23 10 -12 19
-10 33 4 33 10 0 11 -4 3 -14 -11 -12 -5 -17 14 -14 5 1 6 -3 3 -8 -4 -5 0
-12 6 -14 8 -3 9 -6 2 -6 -7 -1 -9 -12 -6 -27 3 -17 1 -25 -5 -21 -6 4 -9 18
-8 31 2 18 -1 23 -11 19 -8 -3 -14 -9 -14 -15 0 -5 5 -6 12 -2 8 5 9 2 5 -9
-3 -9 -2 -19 4 -22 5 -4 7 -10 4 -15 -5 -9 19 -22 48 -25 11 -1 22 -8 27 -15
5 -8 13 -9 21 -4 21 13 39 14 39 2 0 -6 -6 -8 -14 -5 -23 9 -26 -3 -5 -24 23
-23 30 -24 23 -5 -3 8 1 17 8 22 7 4 10 3 5 -1 -4 -5 0 -19 8 -32 9 -13 13
-29 10 -36 -4 -7 1 -3 9 7 14 17 20 16 18 -5 -1 -3 5 -6 13 -6 8 0 12 4 10 7
-3 4 6 7 20 7 14 0 22 -3 19 -8 -3 -5 -1 -9 5 -9 5 0 11 6 13 12 3 9 11 8 31
-5 15 -9 28 -13 32 -7 8 13 36 0 28 -14 -3 -6 -2 -7 3 -3 5 5 9 13 9 18 0 5 5
9 10 8 6 0 9 -7 7 -16 -2 -9 2 -13 10 -10 7 2 22 -3 33 -12 20 -16 20 -16 1 7
-17 19 -17 22 -3 22 11 0 15 6 11 18 -5 13 -4 14 4 3 6 -8 8 -21 4 -29 -3 -10
-1 -13 6 -8 11 7 17 -6 13 -27 -1 -5 3 -6 9 -2 6 4 7 12 1 24 -11 20 -9 47 4
58 4 4 5 2 1 -5 -4 -7 -2 -12 6 -12 9 0 10 -2 1 -8 -8 -5 -7 -14 3 -32 14 -24
15 -24 11 -2 -3 12 -1 22 5 22 5 0 7 4 4 9 -4 5 2 8 11 7 20 -3 28 -21 14 -31
-7 -4 -8 1 -4 12 5 15 4 16 -8 5 -11 -10 -10 -15 5 -30 11 -9 16 -11 12 -4 -5
8 1 12 18 12 14 0 26 -5 26 -12 0 -6 3 -8 6 -5 4 4 1 14 -6 22 -9 11 -10 19
-3 26 8 8 11 7 10 -2 -1 -8 3 -14 8 -14 6 0 9 5 7 10 -1 6 4 2 12 -8 8 -10 18
-18 22 -17 5 1 10 -4 12 -12 2 -8 0 -9 -5 -3 -12 15 -43 18 -43 4 0 -7 3 -9 7
-6 3 4 17 0 31 -9 13 -9 21 -11 18 -5 -7 11 8 16 29 11 6 -1 19 -3 30 -5 11
-1 20 -3 20 -4 0 -2 10 -4 22 -7 29 -5 37 10 17 30 -8 9 -11 16 -5 16 5 0 13
-5 16 -10 4 -6 11 -8 16 -5 5 3 6 -1 3 -9 -5 -12 -1 -14 23 -7 20 6 37 4 54
-5 13 -7 18 -13 12 -14 -7 0 -13 -5 -13 -12 0 -6 9 -3 20 7 18 16 24 14 22 -6
-1 -3 6 -6 13 -6 11 0 12 4 4 14 -8 9 -8 13 -1 13 6 0 13 -4 17 -10 3 -5 13
-6 22 -3 12 5 14 3 8 -7 -5 -9 -4 -11 4 -6 6 4 9 12 6 17 -10 15 23 10 39 -7
15 -14 16 -14 13 3 -1 10 -6 25 -11 33 -7 12 -6 13 5 3 15 -14 33 -18 25 -5
-3 5 12 8 33 8 37 0 53 -19 25 -30 -9 -3 -11 1 -7 12 5 14 3 14 -18 -3 -18
-15 -20 -16 -10 -3 16 22 -1 24 -19 3 -13 -16 -5 -20 29 -16 7 2 11 -2 7 -7
-3 -5 1 -9 9 -9 8 0 12 4 9 9 -3 4 -1 8 5 8 5 0 11 -3 14 -7 2 -5 2 -2 1 4 -2
7 1 13 7 13 6 0 7 5 3 12 -4 7 -3 8 5 4 6 -4 9 -11 6 -16 -3 -4 3 -14 12 -21
12 -10 14 -10 9 -1 -9 15 -1 15 24 2 21 -11 22 8 2 32 -9 12 -9 15 3 15 8 0
12 -4 10 -8 -3 -4 2 -10 11 -13 25 -10 27 -7 13 12 -13 15 -12 16 3 3 10 -7
16 -17 13 -21 -3 -4 1 -10 9 -13 11 -4 13 1 10 19 -2 13 0 24 6 24 6 0 8 -4 5
-10 -3 -5 -1 -10 4 -10 6 0 11 5 11 12 0 6 3 8 6 5 4 -4 1 -13 -5 -21 -9 -11
-9 -16 0 -22 8 -4 9 -3 5 4 -4 7 -1 12 8 12 9 0 15 3 14 8 -2 4 1 8 6 9 5 1
13 7 18 15 8 10 9 9 5 -4 -3 -9 0 -19 8 -22 10 -3 12 0 9 12 -5 13 -4 14 4 4
7 -11 13 -10 27 4 19 19 49 29 39 13 -3 -5 -10 -7 -15 -4 -13 9 -11 -9 3 -23
8 -8 5 -10 -15 -6 -17 3 -27 0 -27 -7 0 -7 3 -9 7 -6 3 4 12 -1 20 -11 12 -16
13 -16 7 0 -4 13 -1 16 14 13 15 -3 19 1 15 15 -4 14 0 19 16 17 12 -1 21 -5
21 -10 0 -5 -7 -6 -16 -3 -9 3 -12 2 -9 -5 4 -6 13 -8 21 -5 8 3 14 0 14 -7 0
-9 2 -9 8 0 5 7 19 10 35 8 27 -5 37 8 15 21 -6 4 -8 3 -5 -3 3 -5 0 -10 -8
-10 -20 0 -19 13 1 21 8 3 12 11 8 17 -4 8 -3 9 5 5 6 -4 9 -11 6 -16 -3 -5 4
-8 15 -7 11 1 20 6 20 12 0 5 5 3 10 -5 8 -12 10 -12 10 -1 0 8 3 12 6 9 3 -4
0 -16 -6 -28 -6 -12 -9 -24 -7 -27 3 -3 13 9 22 27 13 25 19 29 31 20 7 -7 11
-17 7 -23 -3 -6 -1 -7 5 -3 9 5 9 13 1 28 -8 15 -8 23 1 32 8 8 10 7 5 -5 -3
-9 1 -23 9 -31 10 -11 11 -19 4 -26 -6 -6 -6 -12 1 -17 6 -3 11 -3 10 2 -1 4
0 11 1 16 6 19 5 33 -5 39 -5 4 0 6 12 5 17 -1 19 -4 11 -14 -7 -9 -7 -13 1
-13 7 0 9 -5 5 -12 -4 -7 -4 -10 1 -6 4 4 15 2 24 -5 14 -11 14 -10 2 5 -12
16 -11 18 3 18 9 0 16 4 16 10 0 5 -7 7 -15 4 -10 -4 -15 0 -15 12 0 16 2 17
10 4 8 -13 10 -13 10 -1 0 11 4 9 14 -5 10 -13 11 -23 4 -32 -8 -9 -7 -11 6
-6 10 4 15 12 12 19 -8 22 10 38 30 26 15 -8 16 -11 4 -12 -8 -1 -19 -1 -23 0
-5 1 -5 -3 -2 -9 4 -6 10 -9 13 -6 3 3 11 1 19 -6 11 -8 12 -7 7 6 -7 18 14
19 29 1 5 -6 6 -1 3 10 l-6 20 16 -20 c14 -16 16 -17 11 -2 -7 19 5 22 33 7
16 -8 18 -8 14 5 -4 8 -1 15 5 15 6 0 11 -6 11 -12 0 -9 3 -9 9 1 7 11 10 10
14 -5 4 -17 5 -17 6 -1 1 11 6 15 13 11 7 -4 8 -3 4 5 -6 8 2 10 26 6 24 -4
29 -3 18 5 -12 8 -12 10 5 10 12 0 27 -6 34 -12 11 -11 11 -9 0 8 -7 13 -22
21 -35 20 -12 0 -20 -5 -16 -10 3 -5 -1 -6 -8 -1 -9 6 -11 4 -5 -6 8 -12 6
-12 -8 0 -18 15 -23 26 -7 16 6 -3 10 -2 10 3 0 6 10 10 23 9 12 0 28 2 36 4
22 7 66 51 63 63 -2 6 0 8 4 4 4 -4 14 -2 22 5 13 10 14 9 7 -3 -5 -8 -17 -21
-27 -28 -10 -7 -15 -18 -12 -24 5 -8 1 -9 -10 -5 -10 4 -15 3 -11 -3 6 -9 -8
-14 -27 -11 -13 2 -9 -6 9 -20 11 -10 14 -10 9 -2 -4 8 -2 13 7 13 17 0 49 34
40 43 -3 4 -1 8 5 8 27 3 31 4 39 13 5 5 2 6 -6 1 -9 -5 -12 -3 -9 6 3 8 12
12 19 11 8 -2 11 0 7 3 -4 4 -3 16 2 26 7 12 7 20 0 24 -5 3 -10 11 -10 17 0
6 10 3 21 -8 22 -19 22 -19 8 4 -15 24 -35 24 -33 -1 1 -9 -3 -14 -9 -10 -6 3
-7 1 -3 -5 5 -8 1 -10 -9 -5 -11 4 -13 8 -5 13 6 4 12 16 13 27 1 14 6 19 17
15 12 -4 13 -3 4 9 -5 8 -10 19 -9 24 2 17 28 65 35 65 16 0 3 182 -26 354
-15 89 -237 914 -255 948 -5 10 -14 18 -19 18 -6 0 -2 8 8 18 9 10 23 27 30
38 7 10 56 81 110 158 53 76 107 154 120 173 l23 34 -27 87 c-31 100 -65 139
-168 197 -58 32 -67 34 -195 40 -74 4 -146 8 -160 10 -53 7 -817 24 -824 19z
m1355 -2261 c-12 -20 -53 -26 -45 -6 6 17 23 17 23 1 0 -7 5 -5 11 5 5 9 12
17 15 17 3 0 1 -8 -4 -17z m-2200 -55 c-13 -13 -24 5 -16 27 7 16 8 16 17 0 6
-11 6 -20 -1 -27z m2128 12 c0 -5 -5 -10 -11 -10 -5 0 -7 5 -4 10 3 6 8 10 11
10 2 0 4 -4 4 -10z m-2076 -16 c3 -8 2 -12 -4 -9 -6 3 -10 10 -10 16 0 14 7
11 14 -7z m226 -44 c0 -5 -2 -10 -4 -10 -3 0 -8 5 -11 10 -3 6 -1 10 4 10 6 0
11 -4 11 -10z m-114 -13 c8 3 14 0 14 -5 0 -14 40 -12 60 2 13 9 13 8 3 -5 -7
-9 -11 -18 -8 -20 4 -4 -68 -3 -72 1 -2 2 -8 3 -15 4 -6 0 -12 9 -14 20 -2 13
1 15 8 8 6 -6 17 -8 24 -5z m159 -7 c-3 -5 -12 -10 -18 -10 -7 0 -6 4 3 10 19
12 23 12 15 0z m60 0 c3 -6 -1 -7 -9 -4 -18 7 -21 14 -7 14 6 0 13 -4 16 -10z
m1592 -8 c6 2 11 -1 12 -7 1 -5 -5 -10 -11 -10 -14 -1 -28 14 -28 30 0 6 4 4
9 -3 4 -7 13 -12 18 -10z m-1697 -12 c0 -5 4 -9 9 -7 5 1 9 -1 10 -5 1 -11
-11 -8 -34 8 -17 12 -17 14 -2 14 9 0 17 -4 17 -10z m60 -5 c-7 -9 -15 -13
-19 -10 -3 3 1 10 9 15 21 14 24 12 10 -5z m58 -11 c1 -1 -5 -7 -15 -15 -12
-10 -15 -10 -9 -1 4 7 2 20 -6 30 -12 16 -11 16 7 2 11 -8 21 -15 23 -16z
m1463 -1 c-12 -20 -14 -14 -5 12 4 9 9 14 11 11 3 -2 0 -13 -6 -23z m79 17 c0
-14 -18 -21 -25 -10 -5 8 -11 7 -21 -1 -9 -7 -14 -8 -14 -1 0 11 13 17 41 19
11 1 19 -2 19 -7z m-800 -14 c0 -3 -4 -8 -10 -11 -5 -3 -10 -1 -10 4 0 6 5 11
10 11 6 0 10 -2 10 -4z m151 -13 c13 -16 12 -17 -3 -4 -10 7 -18 15 -18 17 0
8 8 3 21 -13z m-50 -10 c13 -16 12 -17 -3 -4 -10 7 -18 15 -18 17 0 8 8 3 21
-13z m-551 -3 c12 -8 13 -11 2 -22 -11 -11 -13 -10 -10 1 2 7 -3 16 -11 19 -8
2 -11 0 -8 -5 3 -5 0 -10 -8 -10 -18 0 -20 13 -2 20 18 8 21 8 37 -3z m249 3
c-3 -20 2 -26 11 -13 7 11 10 11 10 2 0 -7 5 -10 10 -7 6 3 10 2 10 -3 0 -16
-45 -30 -45 -14 0 4 -3 12 -7 18 -4 6 -5 14 -1 18 8 8 13 8 12 -1z m560 -7 c9
-11 9 -16 -1 -22 -7 -4 -10 -4 -6 1 4 4 3 14 -3 22 -6 7 -9 13 -6 13 2 0 10
-6 16 -14z m-740 -33 c2 -1 -6 -1 -17 0 -12 0 -23 10 -26 20 -4 18 -4 18 17 1
12 -11 24 -20 26 -21z m121 21 c0 5 6 3 13 -3 8 -6 18 -7 22 -3 5 4 5 2 2 -5
-12 -19 -57 -3 -57 20 0 7 4 6 10 -3 5 -8 10 -11 10 -6z m124 -10 c3 -8 2 -12
-4 -9 -6 3 -10 10 -10 16 0 14 7 11 14 -7z m194 -20 c2 -1 -8 -1 -21 0 -15 0
-23 6 -20 14 4 10 9 10 22 0 9 -7 17 -13 19 -14z"/>
<path d="M356 1798 c3 -5 10 -6 15 -3 13 9 11 12 -6 12 -8 0 -12 -4 -9 -9z"/>
<path d="M306 1722 c-3 -5 1 -9 9 -9 8 0 12 4 9 9 -3 4 -7 8 -9 8 -2 0 -6 -4
-9 -8z"/>
<path d="M95 460 c-3 -5 -1 -10 4 -10 6 0 11 5 11 10 0 6 -2 10 -4 10 -3 0 -8
-4 -11 -10z"/>
<path d="M108 433 c6 -2 9 -10 6 -15 -4 -7 -2 -8 5 -4 13 9 5 26 -12 25 -9 0
-8 -2 1 -6z"/>
<path d="M2435 431 c-9 -15 15 -25 28 -12 9 9 7 10 -7 5 -13 -5 -17 -4 -12 4
4 7 5 12 2 12 -3 0 -7 -4 -11 -9z"/>
<path d="M119 393 c-7 -10 -9 -15 -5 -11 5 4 15 3 22 -3 7 -6 14 -6 18 -1 3 6
0 15 -8 21 -10 9 -17 7 -27 -6z"/>
<path d="M2419 409 c0 -2 -2 -11 -4 -19 -1 -8 3 -21 11 -27 10 -10 12 -8 10
12 -2 22 -15 46 -17 34z"/>
<path d="M171 207 c2 -1 13 -9 24 -17 19 -14 19 -14 6 3 -7 9 -18 17 -24 17
-6 0 -8 -1 -6 -3z"/>
<path d="M223 196 c4 -10 7 -20 7 -22 0 -3 5 -2 10 1 6 3 10 1 10 -5 0 -6 5
-8 10 -5 6 3 10 1 10 -4 0 -6 6 -11 13 -11 6 1 1 10 -13 20 -14 11 -31 25 -39
32 -12 10 -14 9 -8 -6z"/>
<path d="M2388 203 c7 -3 16 -2 19 1 4 3 -2 6 -13 5 -11 0 -14 -3 -6 -6z"/>
<path d="M2353 153 c0 -9 4 -10 14 -2 7 6 13 12 13 14 0 1 -6 2 -13 2 -8 0
-14 -6 -14 -14z"/>
<path d="M296 128 c3 -4 12 -8 20 -8 8 0 14 4 14 8 0 4 -9 8 -19 8 -11 0 -17
-4 -15 -8z"/>
<path d="M455 100 c-3 -5 -1 -10 4 -10 6 0 11 5 11 10 0 6 -2 10 -4 10 -3 0
-8 -4 -11 -10z"/>
<path d="M1847 81 c-4 -17 -3 -21 5 -13 5 5 8 16 6 23 -3 8 -7 3 -11 -10z"/>
<path d="M1784 68 c0 -10 1 -18 3 -18 1 0 7 8 12 18 7 13 6 19 -2 19 -7 0 -13
-9 -13 -19z"/>
<path d="M1535 71 c4 -7 -1 -22 -12 -34 -18 -22 -18 -22 3 -4 21 17 39 23 30
9 -2 -4 4 -8 15 -8 10 0 19 1 19 1 0 1 -14 12 -31 24 -18 13 -29 18 -24 12z"/>
<path d="M1034 59 c-3 -6 -1 -16 5 -22 9 -9 10 -7 5 7 -6 15 -4 17 6 11 9 -5
11 -4 6 3 -9 15 -13 15 -22 1z"/>
<path d="M1670 39 c0 -5 5 -7 10 -4 6 3 10 8 10 11 0 2 -4 4 -10 4 -5 0 -10
-5 -10 -11z"/>
</g>
</svg>
